<mxfile host="app.diagrams.net" modified="2021-09-29T17:06:17.885Z" agent="5.0 (Macintosh; Intel Mac OS X 10_15_7) AppleWebKit/537.36 (KHTML, like Gecko) Chrome/92.0.4515.134 Safari/537.36" etag="xb6wgi0MoS3jB3j6mj_q" version="15.2.9" type="github">
  <diagram id="47qRGwi_eZyNmwIdA78E" name="Page-1">
    <mxGraphModel dx="925" dy="1307" grid="1" gridSize="10" guides="1" tooltips="1" connect="1" arrows="1" fold="1" page="1" pageScale="1" pageWidth="1600" pageHeight="900" math="0" shadow="0">
      <root>
        <mxCell id="0" />
        <mxCell id="1" parent="0" />
        <mxCell id="Kurg14SJvZBDkSgI0DCf-1" style="edgeStyle=orthogonalEdgeStyle;rounded=0;orthogonalLoop=1;jettySize=auto;html=1;exitX=1;exitY=0.5;exitDx=0;exitDy=0;entryX=0;entryY=0.5;entryDx=0;entryDy=0;" edge="1" parent="1" source="Kurg14SJvZBDkSgI0DCf-2" target="Kurg14SJvZBDkSgI0DCf-8">
          <mxGeometry relative="1" as="geometry" />
        </mxCell>
        <mxCell id="Kurg14SJvZBDkSgI0DCf-2" value="normal_bam" style="whiteSpace=wrap;html=1;" vertex="1" parent="1">
          <mxGeometry x="120" y="472" width="100" height="30" as="geometry" />
        </mxCell>
        <mxCell id="Kurg14SJvZBDkSgI0DCf-3" style="edgeStyle=orthogonalEdgeStyle;rounded=0;orthogonalLoop=1;jettySize=auto;html=1;exitX=1;exitY=0.5;exitDx=0;exitDy=0;entryX=0;entryY=0.5;entryDx=0;entryDy=0;" edge="1" parent="1" source="Kurg14SJvZBDkSgI0DCf-4" target="Kurg14SJvZBDkSgI0DCf-8">
          <mxGeometry relative="1" as="geometry" />
        </mxCell>
        <mxCell id="Kurg14SJvZBDkSgI0DCf-4" value="tumor_bam" style="whiteSpace=wrap;html=1;" vertex="1" parent="1">
          <mxGeometry x="120" y="524" width="100" height="30" as="geometry" />
        </mxCell>
        <mxCell id="Kurg14SJvZBDkSgI0DCf-5" value="vardict" style="swimlane;fontStyle=0;childLayout=stackLayout;horizontal=1;startSize=26;fillColor=none;horizontalStack=0;resizeParent=1;resizeParentMax=0;resizeLast=0;collapsible=1;marginBottom=0;direction=east;" vertex="1" parent="1">
          <mxGeometry x="360" y="80" width="320" height="806" as="geometry">
            <mxRectangle x="360" y="80" width="90" height="26" as="alternateBounds" />
          </mxGeometry>
        </mxCell>
        <mxCell id="Kurg14SJvZBDkSgI0DCf-6" value="VarDict" style="swimlane;fontStyle=0;childLayout=stackLayout;horizontal=1;startSize=26;fillColor=none;horizontalStack=0;resizeParent=1;resizeParentMax=0;resizeLast=0;collapsible=1;marginBottom=0;" vertex="1" parent="Kurg14SJvZBDkSgI0DCf-5">
          <mxGeometry y="26" width="320" height="442" as="geometry">
            <mxRectangle y="26" width="320" height="26" as="alternateBounds" />
          </mxGeometry>
        </mxCell>
        <mxCell id="Kurg14SJvZBDkSgI0DCf-7" value="-th 4" style="text;strokeColor=none;fillColor=none;align=left;verticalAlign=top;spacingLeft=4;spacingRight=4;overflow=hidden;rotatable=0;points=[[0,0.5],[1,0.5]];portConstraint=eastwest;" vertex="1" parent="Kurg14SJvZBDkSgI0DCf-6">
          <mxGeometry y="26" width="320" height="26" as="geometry" />
        </mxCell>
        <mxCell id="Kurg14SJvZBDkSgI0DCf-8" value="-b &quot;{{ tumor_bam }}|{{ normal_bam }}&quot;" style="text;strokeColor=none;fillColor=none;align=left;verticalAlign=top;spacingLeft=4;spacingRight=4;overflow=hidden;rotatable=0;points=[[0,0.5],[1,0.5]];portConstraint=eastwest;" vertex="1" parent="Kurg14SJvZBDkSgI0DCf-6">
          <mxGeometry y="52" width="320" height="26" as="geometry" />
        </mxCell>
        <mxCell id="Kurg14SJvZBDkSgI0DCf-9" value="-N &quot;{{ pair.tumor.rgsm }}&quot;" style="text;strokeColor=none;fillColor=none;align=left;verticalAlign=top;spacingLeft=4;spacingRight=4;overflow=hidden;rotatable=0;points=[[0,0.5],[1,0.5]];portConstraint=eastwest;" vertex="1" parent="Kurg14SJvZBDkSgI0DCf-6">
          <mxGeometry y="78" width="320" height="26" as="geometry" />
        </mxCell>
        <mxCell id="Kurg14SJvZBDkSgI0DCf-10" value="-G &quot;{{ constants.phoenix.reference_fasta }}&quot;" style="text;strokeColor=none;fillColor=none;align=left;verticalAlign=top;spacingLeft=4;spacingRight=4;overflow=hidden;rotatable=0;points=[[0,0.5],[1,0.5]];portConstraint=eastwest;" vertex="1" parent="Kurg14SJvZBDkSgI0DCf-6">
          <mxGeometry y="104" width="320" height="26" as="geometry" />
        </mxCell>
        <mxCell id="Kurg14SJvZBDkSgI0DCf-11" value="-F 0x500" style="text;strokeColor=none;fillColor=none;align=left;verticalAlign=top;spacingLeft=4;spacingRight=4;overflow=hidden;rotatable=0;points=[[0,0.5],[1,0.5]];portConstraint=eastwest;" vertex="1" parent="Kurg14SJvZBDkSgI0DCf-6">
          <mxGeometry y="130" width="320" height="26" as="geometry" />
        </mxCell>
        <mxCell id="Kurg14SJvZBDkSgI0DCf-12" value="-m 8" style="text;strokeColor=none;fillColor=none;align=left;verticalAlign=top;spacingLeft=4;spacingRight=4;overflow=hidden;rotatable=0;points=[[0,0.5],[1,0.5]];portConstraint=eastwest;" vertex="1" parent="Kurg14SJvZBDkSgI0DCf-6">
          <mxGeometry y="156" width="320" height="26" as="geometry" />
        </mxCell>
        <mxCell id="Kurg14SJvZBDkSgI0DCf-13" value="-O 5" style="text;strokeColor=none;fillColor=none;align=left;verticalAlign=top;spacingLeft=4;spacingRight=4;overflow=hidden;rotatable=0;points=[[0,0.5],[1,0.5]];portConstraint=eastwest;" vertex="1" parent="Kurg14SJvZBDkSgI0DCf-6">
          <mxGeometry y="182" width="320" height="26" as="geometry" />
        </mxCell>
        <mxCell id="Kurg14SJvZBDkSgI0DCf-14" value="-Q 1" style="text;strokeColor=none;fillColor=none;align=left;verticalAlign=top;spacingLeft=4;spacingRight=4;overflow=hidden;rotatable=0;points=[[0,0.5],[1,0.5]];portConstraint=eastwest;" vertex="1" parent="Kurg14SJvZBDkSgI0DCf-6">
          <mxGeometry y="208" width="320" height="26" as="geometry" />
        </mxCell>
        <mxCell id="Kurg14SJvZBDkSgI0DCf-15" value="-q 20" style="text;strokeColor=none;fillColor=none;align=left;verticalAlign=top;spacingLeft=4;spacingRight=4;overflow=hidden;rotatable=0;points=[[0,0.5],[1,0.5]];portConstraint=eastwest;" vertex="1" parent="Kurg14SJvZBDkSgI0DCf-6">
          <mxGeometry y="234" width="320" height="26" as="geometry" />
        </mxCell>
        <mxCell id="Kurg14SJvZBDkSgI0DCf-16" value="--dedupÂ " style="text;strokeColor=none;fillColor=none;align=left;verticalAlign=top;spacingLeft=4;spacingRight=4;overflow=hidden;rotatable=0;points=[[0,0.5],[1,0.5]];portConstraint=eastwest;" vertex="1" parent="Kurg14SJvZBDkSgI0DCf-6">
          <mxGeometry y="260" width="320" height="26" as="geometry" />
        </mxCell>
        <mxCell id="Kurg14SJvZBDkSgI0DCf-17" value="--nosv" style="text;strokeColor=none;fillColor=none;align=left;verticalAlign=top;spacingLeft=4;spacingRight=4;overflow=hidden;rotatable=0;points=[[0,0.5],[1,0.5]];portConstraint=eastwest;" vertex="1" parent="Kurg14SJvZBDkSgI0DCf-6">
          <mxGeometry y="286" width="320" height="26" as="geometry" />
        </mxCell>
        <mxCell id="Kurg14SJvZBDkSgI0DCf-18" value="-UN" style="text;strokeColor=none;fillColor=none;align=left;verticalAlign=top;spacingLeft=4;spacingRight=4;overflow=hidden;rotatable=0;points=[[0,0.5],[1,0.5]];portConstraint=eastwest;" vertex="1" parent="Kurg14SJvZBDkSgI0DCf-6">
          <mxGeometry y="312" width="320" height="26" as="geometry" />
        </mxCell>
        <mxCell id="Kurg14SJvZBDkSgI0DCf-19" value="-c 1" style="text;strokeColor=none;fillColor=none;align=left;verticalAlign=top;spacingLeft=4;spacingRight=4;overflow=hidden;rotatable=0;points=[[0,0.5],[1,0.5]];portConstraint=eastwest;" vertex="1" parent="Kurg14SJvZBDkSgI0DCf-6">
          <mxGeometry y="338" width="320" height="26" as="geometry" />
        </mxCell>
        <mxCell id="Kurg14SJvZBDkSgI0DCf-20" value="-S 2" style="text;strokeColor=none;fillColor=none;align=left;verticalAlign=top;spacingLeft=4;spacingRight=4;overflow=hidden;rotatable=0;points=[[0,0.5],[1,0.5]];portConstraint=eastwest;" vertex="1" parent="Kurg14SJvZBDkSgI0DCf-6">
          <mxGeometry y="364" width="320" height="26" as="geometry" />
        </mxCell>
        <mxCell id="Kurg14SJvZBDkSgI0DCf-21" value="-E 3" style="text;strokeColor=none;fillColor=none;align=left;verticalAlign=top;spacingLeft=4;spacingRight=4;overflow=hidden;rotatable=0;points=[[0,0.5],[1,0.5]];portConstraint=eastwest;" vertex="1" parent="Kurg14SJvZBDkSgI0DCf-6">
          <mxGeometry y="390" width="320" height="26" as="geometry" />
        </mxCell>
        <mxCell id="Kurg14SJvZBDkSgI0DCf-22" value="&quot;{{ temp_dir }}/{{ loop.index }}.bed&quot;" style="text;strokeColor=none;fillColor=none;align=left;verticalAlign=top;spacingLeft=4;spacingRight=4;overflow=hidden;rotatable=0;points=[[0,0.5],[1,0.5]];portConstraint=eastwest;" vertex="1" parent="Kurg14SJvZBDkSgI0DCf-6">
          <mxGeometry y="416" width="320" height="26" as="geometry" />
        </mxCell>
        <mxCell id="Kurg14SJvZBDkSgI0DCf-23" style="edgeStyle=orthogonalEdgeStyle;shape=link;rounded=0;orthogonalLoop=1;jettySize=auto;html=1;exitX=0;exitY=0.5;exitDx=0;exitDy=0;entryX=0;entryY=0.5;entryDx=0;entryDy=0;startArrow=none;startFill=0;endArrow=none;endFill=1;sourcePerimeterSpacing=10;targetPerimeterSpacing=10;strokeColor=#666666;strokeWidth=1;fillColor=#f5f5f5;opacity=50;" edge="1" parent="Kurg14SJvZBDkSgI0DCf-5" source="Kurg14SJvZBDkSgI0DCf-24" target="Kurg14SJvZBDkSgI0DCf-6">
          <mxGeometry relative="1" as="geometry" />
        </mxCell>
        <mxCell id="Kurg14SJvZBDkSgI0DCf-24" value="testsomatic.R" style="swimlane;fontStyle=0;childLayout=stackLayout;horizontal=1;startSize=26;fillColor=none;horizontalStack=0;resizeParent=1;resizeParentMax=0;resizeLast=0;collapsible=0;marginBottom=0;expand=0;" vertex="1" collapsed="1" parent="Kurg14SJvZBDkSgI0DCf-5">
          <mxGeometry y="468" width="320" height="26" as="geometry">
            <mxRectangle y="468" width="320" height="52" as="alternateBounds" />
          </mxGeometry>
        </mxCell>
        <mxCell id="Kurg14SJvZBDkSgI0DCf-25" style="edgeStyle=orthogonalEdgeStyle;shape=link;rounded=0;orthogonalLoop=1;jettySize=auto;html=1;exitX=0;exitY=0.5;exitDx=0;exitDy=0;entryX=0;entryY=0.5;entryDx=0;entryDy=0;startArrow=none;startFill=0;endArrow=none;endFill=1;sourcePerimeterSpacing=10;targetPerimeterSpacing=10;strokeColor=#666666;strokeWidth=1;fillColor=#f5f5f5;opacity=50;" edge="1" parent="Kurg14SJvZBDkSgI0DCf-5" source="Kurg14SJvZBDkSgI0DCf-26" target="Kurg14SJvZBDkSgI0DCf-24">
          <mxGeometry relative="1" as="geometry" />
        </mxCell>
        <mxCell id="Kurg14SJvZBDkSgI0DCf-26" value="var2vcf_paired.pl" style="swimlane;fontStyle=0;childLayout=stackLayout;horizontal=1;startSize=26;fillColor=none;horizontalStack=0;resizeParent=1;resizeParentMax=0;resizeLast=0;collapsible=1;marginBottom=0;" vertex="1" parent="Kurg14SJvZBDkSgI0DCf-5">
          <mxGeometry y="494" width="320" height="130" as="geometry">
            <mxRectangle y="494" width="320" height="26" as="alternateBounds" />
          </mxGeometry>
        </mxCell>
        <mxCell id="Kurg14SJvZBDkSgI0DCf-27" value="-N &quot;{{ pair.tumor.rgsm }}|{{ pair.normal.rgsm }}&quot;" style="text;strokeColor=none;fillColor=none;align=left;verticalAlign=top;spacingLeft=4;spacingRight=4;overflow=hidden;rotatable=0;points=[[0,0.5],[1,0.5]];portConstraint=eastwest;" vertex="1" parent="Kurg14SJvZBDkSgI0DCf-26">
          <mxGeometry y="26" width="320" height="26" as="geometry" />
        </mxCell>
        <mxCell id="Kurg14SJvZBDkSgI0DCf-28" value="-I 12" style="text;strokeColor=none;fillColor=none;align=left;verticalAlign=top;spacingLeft=4;spacingRight=4;overflow=hidden;rotatable=0;points=[[0,0.5],[1,0.5]];portConstraint=eastwest;" vertex="1" parent="Kurg14SJvZBDkSgI0DCf-26">
          <mxGeometry y="52" width="320" height="26" as="geometry" />
        </mxCell>
        <mxCell id="Kurg14SJvZBDkSgI0DCf-29" value="-m 5.25" style="text;strokeColor=none;fillColor=none;align=left;verticalAlign=top;spacingLeft=4;spacingRight=4;overflow=hidden;rotatable=0;points=[[0,0.5],[1,0.5]];portConstraint=eastwest;" vertex="1" parent="Kurg14SJvZBDkSgI0DCf-26">
          <mxGeometry y="78" width="320" height="26" as="geometry" />
        </mxCell>
        <mxCell id="Kurg14SJvZBDkSgI0DCf-30" value="-Q 1" style="text;strokeColor=none;fillColor=none;align=left;verticalAlign=top;spacingLeft=4;spacingRight=4;overflow=hidden;rotatable=0;points=[[0,0.5],[1,0.5]];portConstraint=eastwest;" vertex="1" parent="Kurg14SJvZBDkSgI0DCf-26">
          <mxGeometry y="104" width="320" height="26" as="geometry" />
        </mxCell>
        <mxCell id="Kurg14SJvZBDkSgI0DCf-31" style="edgeStyle=orthogonalEdgeStyle;shape=link;rounded=0;orthogonalLoop=1;jettySize=auto;html=1;exitX=0;exitY=0.5;exitDx=0;exitDy=0;entryX=0;entryY=0.5;entryDx=0;entryDy=0;startArrow=none;startFill=0;endArrow=none;endFill=1;sourcePerimeterSpacing=10;targetPerimeterSpacing=10;strokeColor=#666666;strokeWidth=1;fillColor=#f5f5f5;opacity=50;" edge="1" parent="Kurg14SJvZBDkSgI0DCf-5" source="Kurg14SJvZBDkSgI0DCf-32" target="Kurg14SJvZBDkSgI0DCf-26">
          <mxGeometry relative="1" as="geometry" />
        </mxCell>
        <mxCell id="Kurg14SJvZBDkSgI0DCf-32" value="bcftools view" style="swimlane;fontStyle=0;childLayout=stackLayout;horizontal=1;startSize=26;fillColor=none;horizontalStack=0;resizeParent=1;resizeParentMax=0;resizeLast=0;collapsible=1;marginBottom=0;" vertex="1" parent="Kurg14SJvZBDkSgI0DCf-5">
          <mxGeometry y="624" width="320" height="78" as="geometry">
            <mxRectangle y="624" width="320" height="26" as="alternateBounds" />
          </mxGeometry>
        </mxCell>
        <mxCell id="Kurg14SJvZBDkSgI0DCf-33" value="--output-type z" style="text;strokeColor=none;fillColor=none;align=left;verticalAlign=top;spacingLeft=4;spacingRight=4;overflow=hidden;rotatable=0;points=[[0,0.5],[1,0.5]];portConstraint=eastwest;" vertex="1" parent="Kurg14SJvZBDkSgI0DCf-32">
          <mxGeometry y="26" width="320" height="26" as="geometry" />
        </mxCell>
        <mxCell id="Kurg14SJvZBDkSgI0DCf-34" value="--output-file &quot;{{ temp_dir }}/{{ loop.index }}.vardict.vcf.gz&quot;" style="text;strokeColor=none;fillColor=none;align=left;verticalAlign=top;spacingLeft=4;spacingRight=4;overflow=hidden;rotatable=0;points=[[0,0.5],[1,0.5]];portConstraint=eastwest;" vertex="1" parent="Kurg14SJvZBDkSgI0DCf-32">
          <mxGeometry y="52" width="320" height="26" as="geometry" />
        </mxCell>
        <mxCell id="Kurg14SJvZBDkSgI0DCf-35" value="bcftools index" style="swimlane;fontStyle=0;childLayout=stackLayout;horizontal=1;startSize=26;fillColor=none;horizontalStack=0;resizeParent=1;resizeParentMax=0;resizeLast=0;collapsible=1;marginBottom=0;" vertex="1" parent="Kurg14SJvZBDkSgI0DCf-5">
          <mxGeometry y="702" width="320" height="104" as="geometry">
            <mxRectangle y="546" width="320" height="26" as="alternateBounds" />
          </mxGeometry>
        </mxCell>
        <mxCell id="Kurg14SJvZBDkSgI0DCf-36" value="--tbi" style="text;strokeColor=none;fillColor=none;align=left;verticalAlign=top;spacingLeft=4;spacingRight=4;overflow=hidden;rotatable=0;points=[[0,0.5],[1,0.5]];portConstraint=eastwest;" vertex="1" parent="Kurg14SJvZBDkSgI0DCf-35">
          <mxGeometry y="26" width="320" height="26" as="geometry" />
        </mxCell>
        <mxCell id="Kurg14SJvZBDkSgI0DCf-37" value="--force" style="text;strokeColor=none;fillColor=none;align=left;verticalAlign=top;spacingLeft=4;spacingRight=4;overflow=hidden;rotatable=0;points=[[0,0.5],[1,0.5]];portConstraint=eastwest;" vertex="1" parent="Kurg14SJvZBDkSgI0DCf-35">
          <mxGeometry y="52" width="320" height="26" as="geometry" />
        </mxCell>
        <mxCell id="Kurg14SJvZBDkSgI0DCf-38" value="&quot;{{ temp_dir }}/{{ loop.index }}.vardict.vcf.gz&quot;" style="text;strokeColor=none;fillColor=none;align=left;verticalAlign=top;spacingLeft=4;spacingRight=4;overflow=hidden;rotatable=0;points=[[0,0.5],[1,0.5]];portConstraint=eastwest;" vertex="1" parent="Kurg14SJvZBDkSgI0DCf-35">
          <mxGeometry y="78" width="320" height="26" as="geometry" />
        </mxCell>
        <mxCell id="Kurg14SJvZBDkSgI0DCf-39" style="edgeStyle=orthogonalEdgeStyle;rounded=0;orthogonalLoop=1;jettySize=auto;html=1;exitX=0;exitY=0.5;exitDx=0;exitDy=0;entryX=0;entryY=0.5;entryDx=0;entryDy=0;startArrow=none;startFill=0;endArrow=classic;endFill=1;sourcePerimeterSpacing=10;targetPerimeterSpacing=10;strokeWidth=1;" edge="1" parent="Kurg14SJvZBDkSgI0DCf-5" source="Kurg14SJvZBDkSgI0DCf-34" target="Kurg14SJvZBDkSgI0DCf-38">
          <mxGeometry relative="1" as="geometry" />
        </mxCell>
        <mxCell id="Kurg14SJvZBDkSgI0DCf-40" value="vardict_filter_variants" style="swimlane;fontStyle=0;childLayout=stackLayout;horizontal=1;startSize=26;fillColor=none;horizontalStack=0;resizeParent=1;resizeParentMax=0;resizeLast=0;collapsible=1;marginBottom=0;direction=east;" vertex="1" parent="1">
          <mxGeometry x="1030" y="201" width="315" height="286" as="geometry">
            <mxRectangle x="270" y="344" width="90" height="26" as="alternateBounds" />
          </mxGeometry>
        </mxCell>
        <mxCell id="Kurg14SJvZBDkSgI0DCf-41" value="bcftools filter" style="swimlane;fontStyle=0;childLayout=stackLayout;horizontal=1;startSize=26;fillColor=none;horizontalStack=0;resizeParent=1;resizeParentMax=0;resizeLast=0;collapsible=1;marginBottom=0;" vertex="1" parent="Kurg14SJvZBDkSgI0DCf-40">
          <mxGeometry y="26" width="315" height="260" as="geometry" />
        </mxCell>
        <mxCell id="Kurg14SJvZBDkSgI0DCf-42" value="--output-type z" style="text;strokeColor=none;fillColor=none;align=left;verticalAlign=top;spacingLeft=4;spacingRight=4;overflow=hidden;rotatable=0;points=[[0,0.5],[1,0.5]];portConstraint=eastwest;" vertex="1" parent="Kurg14SJvZBDkSgI0DCf-41">
          <mxGeometry y="26" width="315" height="26" as="geometry" />
        </mxCell>
        <mxCell id="Kurg14SJvZBDkSgI0DCf-43" value="--include &#39;FILTER == &quot;PASS&quot; &amp; INFO/STATUS == &quot;StrongSomatic&quot;&#39;" style="text;strokeColor=none;fillColor=none;align=left;verticalAlign=top;spacingLeft=4;spacingRight=4;overflow=hidden;rotatable=0;points=[[0,0.5],[1,0.5]];portConstraint=eastwest;" vertex="1" parent="Kurg14SJvZBDkSgI0DCf-41">
          <mxGeometry y="52" width="315" height="26" as="geometry" />
        </mxCell>
        <mxCell id="Kurg14SJvZBDkSgI0DCf-44" value="--targets-file &quot;{{ pair.tumor.capture_kit.extended_bed }}&quot;" style="text;strokeColor=none;fillColor=none;align=left;verticalAlign=top;spacingLeft=4;spacingRight=4;overflow=hidden;rotatable=0;points=[[0,0.5],[1,0.5]];portConstraint=eastwest;" vertex="1" parent="Kurg14SJvZBDkSgI0DCf-41">
          <mxGeometry y="78" width="315" height="26" as="geometry" />
        </mxCell>
        <mxCell id="Kurg14SJvZBDkSgI0DCf-45" value="&quot;{{ all_vcf }}&quot;" style="text;strokeColor=none;fillColor=none;align=left;verticalAlign=top;spacingLeft=4;spacingRight=4;overflow=hidden;rotatable=0;points=[[0,0.5],[1,0.5]];portConstraint=eastwest;" vertex="1" parent="Kurg14SJvZBDkSgI0DCf-41">
          <mxGeometry y="104" width="315" height="26" as="geometry" />
        </mxCell>
        <mxCell id="Kurg14SJvZBDkSgI0DCf-46" style="edgeStyle=orthogonalEdgeStyle;rounded=0;orthogonalLoop=1;jettySize=auto;html=1;exitX=0;exitY=0.5;exitDx=0;exitDy=0;entryX=0;entryY=0.5;entryDx=0;entryDy=0;" edge="1" parent="Kurg14SJvZBDkSgI0DCf-41" source="Kurg14SJvZBDkSgI0DCf-47" target="Kurg14SJvZBDkSgI0DCf-51">
          <mxGeometry relative="1" as="geometry" />
        </mxCell>
        <mxCell id="Kurg14SJvZBDkSgI0DCf-47" value="&gt; &quot;{{ pass_vcf }}&quot;" style="text;strokeColor=none;fillColor=none;align=left;verticalAlign=top;spacingLeft=4;spacingRight=4;overflow=hidden;rotatable=0;points=[[0,0.5],[1,0.5]];portConstraint=eastwest;" vertex="1" parent="Kurg14SJvZBDkSgI0DCf-41">
          <mxGeometry y="130" width="315" height="26" as="geometry" />
        </mxCell>
        <mxCell id="Kurg14SJvZBDkSgI0DCf-48" value="bcftools index" style="swimlane;fontStyle=0;childLayout=stackLayout;horizontal=1;startSize=26;fillColor=none;horizontalStack=0;resizeParent=1;resizeParentMax=0;resizeLast=0;collapsible=1;marginBottom=0;" vertex="1" parent="Kurg14SJvZBDkSgI0DCf-41">
          <mxGeometry y="156" width="315" height="104" as="geometry" />
        </mxCell>
        <mxCell id="Kurg14SJvZBDkSgI0DCf-49" value="--tbi" style="text;strokeColor=none;fillColor=none;align=left;verticalAlign=top;spacingLeft=4;spacingRight=4;overflow=hidden;rotatable=0;points=[[0,0.5],[1,0.5]];portConstraint=eastwest;" vertex="1" parent="Kurg14SJvZBDkSgI0DCf-48">
          <mxGeometry y="26" width="315" height="26" as="geometry" />
        </mxCell>
        <mxCell id="Kurg14SJvZBDkSgI0DCf-50" value="--force" style="text;strokeColor=none;fillColor=none;align=left;verticalAlign=top;spacingLeft=4;spacingRight=4;overflow=hidden;rotatable=0;points=[[0,0.5],[1,0.5]];portConstraint=eastwest;" vertex="1" parent="Kurg14SJvZBDkSgI0DCf-48">
          <mxGeometry y="52" width="315" height="26" as="geometry" />
        </mxCell>
        <mxCell id="Kurg14SJvZBDkSgI0DCf-51" value="&quot;{{ pass_vcf }}&quot;" style="text;strokeColor=none;fillColor=none;align=left;verticalAlign=top;spacingLeft=4;spacingRight=4;overflow=hidden;rotatable=0;points=[[0,0.5],[1,0.5]];portConstraint=eastwest;" vertex="1" parent="Kurg14SJvZBDkSgI0DCf-48">
          <mxGeometry y="78" width="315" height="26" as="geometry" />
        </mxCell>
        <mxCell id="Kurg14SJvZBDkSgI0DCf-52" value="vardict_merge_chunks" style="swimlane;fontStyle=0;childLayout=stackLayout;horizontal=1;startSize=26;fillColor=none;horizontalStack=0;resizeParent=1;resizeParentMax=0;resizeLast=0;collapsible=1;marginBottom=0;direction=east;" vertex="1" parent="1">
          <mxGeometry x="760" y="201" width="210" height="260" as="geometry">
            <mxRectangle x="270" y="344" width="90" height="26" as="alternateBounds" />
          </mxGeometry>
        </mxCell>
        <mxCell id="Kurg14SJvZBDkSgI0DCf-53" value="bcftools concat" style="swimlane;fontStyle=0;childLayout=stackLayout;horizontal=1;startSize=26;fillColor=none;horizontalStack=0;resizeParent=1;resizeParentMax=0;resizeLast=0;collapsible=1;marginBottom=0;" vertex="1" parent="Kurg14SJvZBDkSgI0DCf-52">
          <mxGeometry y="26" width="210" height="130" as="geometry">
            <mxRectangle y="26" width="210" height="26" as="alternateBounds" />
          </mxGeometry>
        </mxCell>
        <mxCell id="Kurg14SJvZBDkSgI0DCf-54" value="--allow-overlaps" style="text;strokeColor=none;fillColor=none;align=left;verticalAlign=top;spacingLeft=4;spacingRight=4;overflow=hidden;rotatable=0;points=[[0,0.5],[1,0.5]];portConstraint=eastwest;" vertex="1" parent="Kurg14SJvZBDkSgI0DCf-53">
          <mxGeometry y="26" width="210" height="26" as="geometry" />
        </mxCell>
        <mxCell id="Kurg14SJvZBDkSgI0DCf-55" value="--output-type z" style="text;strokeColor=none;fillColor=none;align=left;verticalAlign=top;spacingLeft=4;spacingRight=4;overflow=hidden;rotatable=0;points=[[0,0.5],[1,0.5]];portConstraint=eastwest;" vertex="1" parent="Kurg14SJvZBDkSgI0DCf-53">
          <mxGeometry y="52" width="210" height="26" as="geometry" />
        </mxCell>
        <mxCell id="Kurg14SJvZBDkSgI0DCf-56" value="--output &quot;{{ all_vcf }}&quot;" style="text;strokeColor=none;fillColor=none;align=left;verticalAlign=top;spacingLeft=4;spacingRight=4;overflow=hidden;rotatable=0;points=[[0,0.5],[1,0.5]];portConstraint=eastwest;" vertex="1" parent="Kurg14SJvZBDkSgI0DCf-53">
          <mxGeometry y="78" width="210" height="26" as="geometry" />
        </mxCell>
        <mxCell id="Kurg14SJvZBDkSgI0DCf-57" value="&quot;{{ temp_dir }}/{{ loop.index }}.vardict.vcf.gz&quot;" style="text;strokeColor=none;fillColor=none;align=left;verticalAlign=top;spacingLeft=4;spacingRight=4;overflow=hidden;rotatable=0;points=[[0,0.5],[1,0.5]];portConstraint=eastwest;" vertex="1" parent="Kurg14SJvZBDkSgI0DCf-53">
          <mxGeometry y="104" width="210" height="26" as="geometry" />
        </mxCell>
        <mxCell id="Kurg14SJvZBDkSgI0DCf-58" value="bcftools index" style="swimlane;fontStyle=0;childLayout=stackLayout;horizontal=1;startSize=26;fillColor=none;horizontalStack=0;resizeParent=1;resizeParentMax=0;resizeLast=0;collapsible=1;marginBottom=0;" vertex="1" parent="Kurg14SJvZBDkSgI0DCf-52">
          <mxGeometry y="156" width="210" height="104" as="geometry" />
        </mxCell>
        <mxCell id="Kurg14SJvZBDkSgI0DCf-59" value="--tbi" style="text;strokeColor=none;fillColor=none;align=left;verticalAlign=top;spacingLeft=4;spacingRight=4;overflow=hidden;rotatable=0;points=[[0,0.5],[1,0.5]];portConstraint=eastwest;" vertex="1" parent="Kurg14SJvZBDkSgI0DCf-58">
          <mxGeometry y="26" width="210" height="26" as="geometry" />
        </mxCell>
        <mxCell id="Kurg14SJvZBDkSgI0DCf-60" value="--force" style="text;strokeColor=none;fillColor=none;align=left;verticalAlign=top;spacingLeft=4;spacingRight=4;overflow=hidden;rotatable=0;points=[[0,0.5],[1,0.5]];portConstraint=eastwest;" vertex="1" parent="Kurg14SJvZBDkSgI0DCf-58">
          <mxGeometry y="52" width="210" height="26" as="geometry" />
        </mxCell>
        <mxCell id="Kurg14SJvZBDkSgI0DCf-61" value="&quot;{{ all_vcf }}&quot;" style="text;strokeColor=none;fillColor=none;align=left;verticalAlign=top;spacingLeft=4;spacingRight=4;overflow=hidden;rotatable=0;points=[[0,0.5],[1,0.5]];portConstraint=eastwest;" vertex="1" parent="Kurg14SJvZBDkSgI0DCf-58">
          <mxGeometry y="78" width="210" height="26" as="geometry" />
        </mxCell>
        <mxCell id="Kurg14SJvZBDkSgI0DCf-62" style="edgeStyle=orthogonalEdgeStyle;rounded=0;orthogonalLoop=1;jettySize=auto;html=1;exitX=0;exitY=0.5;exitDx=0;exitDy=0;entryX=0;entryY=0.5;entryDx=0;entryDy=0;" edge="1" parent="Kurg14SJvZBDkSgI0DCf-52" source="Kurg14SJvZBDkSgI0DCf-56" target="Kurg14SJvZBDkSgI0DCf-61">
          <mxGeometry relative="1" as="geometry" />
        </mxCell>
        <mxCell id="Kurg14SJvZBDkSgI0DCf-63" style="edgeStyle=orthogonalEdgeStyle;rounded=0;orthogonalLoop=1;jettySize=auto;html=1;exitX=1;exitY=0.5;exitDx=0;exitDy=0;entryX=0;entryY=0.5;entryDx=0;entryDy=0;endArrow=ERmany;endFill=0;" edge="1" parent="1" source="Kurg14SJvZBDkSgI0DCf-34" target="Kurg14SJvZBDkSgI0DCf-57">
          <mxGeometry relative="1" as="geometry" />
        </mxCell>
        <mxCell id="Kurg14SJvZBDkSgI0DCf-64" style="edgeStyle=orthogonalEdgeStyle;rounded=0;orthogonalLoop=1;jettySize=auto;html=1;exitX=1;exitY=0.5;exitDx=0;exitDy=0;entryX=0;entryY=0.5;entryDx=0;entryDy=0;" edge="1" parent="1" source="Kurg14SJvZBDkSgI0DCf-56" target="Kurg14SJvZBDkSgI0DCf-45">
          <mxGeometry relative="1" as="geometry" />
        </mxCell>
      </root>
    </mxGraphModel>
  </diagram>
</mxfile>
